<?xml version="1.0" encoding="UTF-8" standalone="no"?>
<!-- Created with Inkscape (http://www.inkscape.org/) -->

<svg
   width="11mm"
   height="11mm"
   viewBox="0 0 18.893 18.892999"
   version="1.1"
   id="svg39456"
   xmlns="http://www.w3.org/2000/svg"
   xmlns:svg="http://www.w3.org/2000/svg">
  <defs
     id="defs39453" />
  <g
     id="layer1"
     transform="translate(-68.578873,-108.7655)">
    <g
       id="g324-0-6-6-5-0-4"
       transform="matrix(0.17631281,0,0,0.21787269,-27.24313,-85.529646)"
       style="stroke:#1b00c8;stroke-width:5.54804;stroke-dasharray:none;stroke-opacity:1">
      <path
         d="m 601.5395,935.0804 h 26.11256"
         style="fill:none;stroke:#1b00c8;stroke-width:5.54804;stroke-linecap:square;stroke-linejoin:round;stroke-miterlimit:10;stroke-dasharray:none;stroke-opacity:1"
         id="path326-4-44-5-6-5-9" />
    </g>
    <g
       id="g308-5-3-3-5-6-2"
       transform="matrix(0.21787269,0,0,0.21787269,-60.625006,-93.686422)"
       style="fill:#1b00c8;fill-opacity:1;stroke:#1b00c8;stroke-width:0;stroke-dasharray:none;stroke-opacity:1">
      <path
         style="color:#000000;fill:#1b00c8;fill-opacity:1;stroke:#1b00c8;stroke-width:0;stroke-linecap:square;stroke-linejoin:round;stroke-miterlimit:10;stroke-dasharray:none;stroke-opacity:1"
         d="m 641.64212,934.75959 c -18.83751,29.72363 -31.2876,49.02967 -48.61744,75.91811 h 12.38548 l 48.64378,-75.91675 z"
         id="path310-7-0-9-3-8-9" />
    </g>
    <g
       id="g312-2-1-9-9-5-1"
       transform="matrix(0.23249974,0,0,0.21763578,-69.964557,-92.40658)"
       style="fill:#000000;stroke:#1b00c8;stroke-opacity:1">
      <path
         d="m 649.40127,934.99121 9.53387,-10e-6 h 9.5048 l 3.61717,-1e-5"
         style="fill:#000000;stroke:#1b00c8;stroke-width:10.18;stroke-linecap:square;stroke-linejoin:round;stroke-miterlimit:10;stroke-dasharray:none;stroke-opacity:1"
         id="path314-97-9-7-0-3-0" />
    </g>
    <g
       id="g324-0-6-6-5-8-9"
       transform="matrix(0.20120055,0,0,0.21787269,-51.405596,-92.624949)"
       style="stroke:#1b00c8;stroke-opacity:1">
      <path
         d="m 601.5395,935.0804 h 29.6823"
         style="fill:none;stroke:#1b00c8;stroke-width:10.3937;stroke-linecap:square;stroke-linejoin:round;stroke-miterlimit:10;stroke-dasharray:none;stroke-opacity:1"
         id="path326-4-44-5-6-6-3" />
    </g>
    <g
       id="g184-7-1-3-7-0"
       transform="matrix(0.10282904,0,0,0.10210869,29.236858,52.438712)"
       style="fill:#f0d007;fill-opacity:1;stroke:#f0d007;stroke-linecap:square;stroke-opacity:1">
      <path
         style="color:#000000;fill:#f0d007;fill-opacity:1;stroke:#f0d007;stroke-miterlimit:10;stroke-opacity:1;-inkscape-stroke:none"
         d="m 486.04607,659.15488 -9.2154,0.011 -42.43134,66.22546 12.39415,0.006 28.8906,-45.08309 -0.0527,38.20117 -0.008,5.19726 10.39453,0.0137 0.006,-5.19727 z"
         id="path186-0-8-2-1-0" />
    </g>
    <g
       id="g188-3-7-6-8-3"
       transform="matrix(0.10282095,0,0,0.10282095,27.863177,52.129983)"
       style="stroke:#f0d007;stroke-linecap:square;stroke-linejoin:miter;stroke-opacity:1">
      <path
         d="m 496.24932,662.32849 28.36498,2e-4"
         style="fill:none;stroke:#f0d007;stroke-width:10.3937;stroke-linecap:square;stroke-linejoin:miter;stroke-miterlimit:10;stroke-dasharray:none;stroke-opacity:1"
         id="path190-9-6-8-4-0" />
    </g>
    <g
       id="g192-9-0-9-97-1"
       transform="matrix(0.10282095,0,0,0.10282095,28.182247,51.921893)"
       style="stroke:#f0d007;stroke-linecap:square;stroke-linejoin:miter;stroke-opacity:1">
      <path
         d="m 494.8392,690.6523 26.76762,-0.0121"
         style="fill:none;stroke:#f0d007;stroke-width:10.3937;stroke-linecap:square;stroke-linejoin:miter;stroke-miterlimit:10;stroke-dasharray:none;stroke-opacity:1"
         id="path194-9-0-1-31-9" />
    </g>
    <g
       id="g196-1-9-4-3-8"
       transform="matrix(0.10282095,0,0,0.10282095,28.182247,51.921893)"
       style="stroke:#f0d007;stroke-linecap:square;stroke-linejoin:miter;stroke-opacity:1">
      <path
         d="m 491.10147,720.25071 30.57389,0.007"
         style="fill:none;stroke:#f0d007;stroke-width:10.3937;stroke-linecap:square;stroke-linejoin:miter;stroke-miterlimit:10;stroke-dasharray:none;stroke-opacity:1"
         id="path198-7-5-8-7-6" />
    </g>
    <g
       id="g212-1-5-1-9-9"
       transform="matrix(0.10282095,0,0,0.10282095,26.449505,51.921893)"
       style="stroke:#f0d007;stroke-linecap:square;stroke-linejoin:miter;stroke-opacity:1">
      <path
         id="path214-4-9-9-3-0"
         style="fill:none;stroke:#f0d007;stroke-width:10.3937;stroke-linecap:square;stroke-linejoin:miter;stroke-miterlimit:10;stroke-dasharray:none;stroke-opacity:1"
         d="m 553.66587,720.28419 h 33.58053 l -0.018,-29.68829 m 0.013,-26.25515 H 553.708 l -0.04,26.25515 m 0,0 h 33.56046" />
    </g>
  </g>
</svg>
